#!OML:ASF G:\JayActor3\Patient Classification 1\Patient 1\Session 5\male.ASF
:FULLY-SPECIFIED
:DEGREES
1034
root -37.5075 15.0447 -5.54712 410.482 88.0607 758.359
lowerback 30.6761 -1.46975 0.546493
upperback 7.37013 -1.13979 -1.2788
thorax -8.54809 -0.259468 -1.38254
lowerneck -5.18824 0.164273 1.90722
upperneck -6.9 0.300701 0.221118
head -1.26039 0.168119 -0.245784
rclavicle -9.74045e-015 -1.23246e-014
rhumerus -21.3522 6.69285 -86.0575
rradius 51.7866
rwrist -6.26329
rhand -20.0903 -8.41404
rfingers 7.12502
rthumb 6.25268 -38.3018
lclavicle -9.74045e-015 -1.23246e-014
lhumerus -21.5934 -8.81245 84.3852
lradius 44.1881
lwrist 26.7274
lhand -18.7832 12.3573
lfingers 7.12502
lthumb 7.51442 42.2038
rfemur -69.8837 2.48133 15.5861
rtibia 54.4324
rfoot -0.829713 -21.0395
rtoes 5.89676
lfemur -38.1449 3.12277 -25.9039
ltibia 72.7389
lfoot -29.8822 2.57563
ltoes -17.9439
1035
root -37.6283 15.0425 -5.58438 407.12 87.9465 755.028
lowerback 30.7226 -1.44787 0.505927
upperback 7.39153 -1.12442 -1.30048
thorax -8.54494 -0.250793 -1.38907
lowerneck -5.19812 0.173044 1.87189
upperneck -6.8925 0.312058 0.194716
head -1.25625 0.174856 -0.247982
rclavicle -6.16232e-015 -2.20651e-014
rhumerus -21.4098 6.7555 -86.0956
rradius 51.8632
rwrist -6.27573
rhand -20.0519 -8.41122
rfingers 7.12502
rthumb 6.28976 -38.2978
lclavicle -6.16232e-015 -2.20651e-014
lhumerus -21.6505 -8.76588 84.3702
lradius 44.12
lwrist 26.6329
lhand -18.8219 12.348
lfingers 7.12502
lthumb 7.47708 42.1958
rfemur -70.1716 2.32306 15.4765
rtibia 54.7644
rfoot -1.06702 -19.9461
rtoes 2.34702
lfemur -38.5172 3.27213 -26.1583
ltibia 72.5928
lfoot -30.1299 2.71506
ltoes -16.8792
1036
root -37.7459 15.0368 -5.61952 404.32 87.8402 752.271
lowerback 30.7644 -1.427 0.458411
upperback 7.4124 -1.11187 -1.31613
thorax -8.53996 -0.243332 -1.38376
lowerneck -5.19846 0.183648 1.85446
upperneck -6.87428 0.324239 0.154743
head -1.25033 0.181579 -0.25729
rclavicle 2.5842e-015 -1.59028e-015
rhumerus -21.4801 6.8216 -86.1331
rradius 51.9326
rwrist -6.28723
rhand -20.01 -8.40404
rfingers 7.12502
rthumb 6.33018 -38.2895
lclavicle 2.5842e-015 -1.59028e-015
lhumerus -21.7332 -8.72359 84.3558
lradius 44.0609
lwrist 26.5561
lhand -18.8733 12.3671
lfingers 7.12502
lthumb 7.42743 42.2167
rfemur -70.4927 2.12318 15.4578
rtibia 55.4097
rfoot -1.59779 -18.8022
rtoes -0.943268
lfemur -38.9042 3.42081 -26.3955
ltibia 72.5075
lfoot -30.3211 2.87362
ltoes -16.0298
1037
root -37.8604 15.0282 -5.65234 401.683 87.7446 749.691
lowerback 30.7995 -1.40411 0.407343
upperback 7.43711 -1.09646 -1.32125
thorax -8.52704 -0.234315 -1.36558
lowerneck -5.19882 0.194626 1.84347
upperneck -6.84455 0.336116 0.110823
head -1.24079 0.187972 -0.268831
rclavicle 1.59028e-015 3.77691e-015
rhumerus -21.5578 6.8898 -86.164
rradius 51.9956
rwrist -6.28733
rhand -19.9641 -8.39937
rfingers 7.12502
rthumb 6.37446 -38.2835
lclavicle 1.59028e-015 3.77691e-015
lhumerus -21.8294 -8.68493 84.3455
lradius 44.0078
lwrist 26.4998
lhand -18.8977 12.366
lfingers 7.12502
lthumb 7.40386 42.2164
rfemur -70.8456 1.90284 15.5295
rtibia 56.3856
rfoot -2.42174 -17.7652
rtoes -3.7415
lfemur -39.3064 3.57423 -26.6017
ltibia 72.4838
lfoot -30.4434 3.05547
ltoes -15.4731
1038
root -37.9723 15.0173 -5.68277 399.276 87.6632 747.351
lowerback 30.8347 -1.38055 0.356282
upperback 7.46139 -1.07932 -1.3184
thorax -8.51444 -0.224471 -1.33905
lowerneck -5.20059 0.202733 1.83816
upperneck -6.80414 0.343818 0.0719099
head -1.22771 0.192038 -0.279742
rclavicle -1.59028e-015 -4.03533e-014
rhumerus -21.6461 6.94917 -86.1908
rradius 52.0464
rwrist -6.27567
rhand -19.9196 -8.39786
rfingers 7.12502
rthumb 6.41748 -38.2806
lclavicle -1.59028e-015 -4.03533e-014
lhumerus -21.9342 -8.65635 84.3377
lradius 43.9541
lwrist 26.4628
lhand -18.9083 12.3887
lfingers 7.12502
lthumb 7.39362 42.2395
rfemur -71.2263 1.67904 15.659
rtibia 57.6832
rfoot -3.53473 -16.9414
rtoes -5.88819
lfemur -39.7235 3.72568 -26.7784
ltibia 72.5159
lfoot -30.5414 3.2152
ltoes -15.008
1039
root -38.082 15.0045 -5.71092 397.013 87.5974 745.161
lowerback 30.8692 -1.35671 0.311221
upperback 7.48429 -1.05942 -1.30887
thorax -8.50301 -0.21346 -1.30948
lowerneck -5.20286 0.207018 1.83922
upperneck -6.7581 0.346315 0.0399776
head -1.21285 0.193251 -0.289554
rclavicle 5.1684e-015 3.06128e-014
rhumerus -21.7449 6.99041 -86.2144
rradius 52.083
rwrist -6.24181
rhand -19.8701 -8.4081
rfingers 7.12502
rthumb 6.46517 -38.2894
lclavicle 5.1684e-015 3.06128e-014
lhumerus -22.0375 -8.63913 84.3319
lradius 43.8914
lwrist 26.4346
lhand -18.8824 12.3997
lfingers 7.12502
lthumb 7.41865 42.2496
rfemur -71.6315 1.4587 15.8276
rtibia 59.2687
rfoot -4.83599 -16.3546
rtoes -7.4146
lfemur -40.1589 3.86335 -26.9236
ltibia 72.5951
lfoot -30.62 3.33476
ltoes -14.5811
1040
root -38.1902 14.9908 -5.73702 394.929 87.5534 743.145
lowerback 30.9062 -1.33775 0.282078
upperback 7.49953 -1.04116 -1.29583
thorax -8.50185 -0.203745 -1.28457
lowerneck -5.19861 0.206904 1.84957
upperneck -6.71568 0.343002 0.0139232
head -1.20027 0.191248 -0.299148
rclavicle 7.15625e-015 7.95139e-016
rhumerus -21.8574 7.00856 -86.2394
rradius 52.1041
rwrist -6.19567
rhand -19.8237 -8.41141
rfingers 7.12502
rthumb 6.50999 -38.2914
lclavicle 7.15625e-015 7.95139e-016
lhumerus -22.1412 -8.63545 84.3239
lradius 43.8222
lwrist 26.412
lhand -18.8421 12.4186
lfingers 7.12502
lthumb 7.45754 42.2671
rfemur -72.0566 1.22484 16.0293
rtibia 61.0934
rfoot -6.20212 -15.9392
rtoes -8.5193
lfemur -40.616 3.97325 -27.0383
ltibia 72.7076
lfoot -30.6811 3.41026
ltoes -14.1582
1041
root -38.2968 14.9768 -5.76151 392.656 87.5194 740.942
lowerback 30.9556 -1.31826 0.276316
upperback 7.50652 -1.01573 -1.28231
thorax -8.51628 -0.191316 -1.27532
lowerneck -5.17927 0.200706 1.86651
upperneck -6.68652 0.332407 0.000934797
head -1.19444 0.185281 -0.305937
rclavicle 9.93923e-015 1.41137e-014
rhumerus -21.9855 6.99336 -86.2675
rradius 52.1087
rwrist -6.13527
rhand -19.7818 -8.40535
rfingers 7.12502
rthumb 6.55043 -38.284
lclavicle 9.93923e-015 1.41137e-014
lhumerus -22.2439 -8.64722 84.313
lradius 43.7414
lwrist 26.3885
lhand -18.7952 12.4477
lfingers 7.12502
lthumb 7.50284 42.2946
rfemur -72.4768 1.00142 16.2531
rtibia 63.1055
rfoot -7.58455 -15.6121
rtoes -9.19889
lfemur -41.0795 4.07116 -27.1179
ltibia 72.8416
lfoot -30.7331 3.43648
ltoes -13.7078
1042
root -38.4019 14.9633 -5.785 390.498 87.496 738.852
lowerback 31.0203 -1.30363 0.295595
upperback 7.50141 -0.990443 -1.27575
thorax -8.55246 -0.179731 -1.28843
lowerneck -5.13853 0.189381 1.90057
upperneck -6.67249 0.315164 -0.00647084
head -1.19696 0.175465 -0.313982
rclavicle -1.96797e-014 -3.10104e-014
rhumerus -22.1375 6.944 -86.3047
rradius 52.0989
rwrist -6.07187
rhand -19.7391 -8.4023
rfingers 7.12502
rthumb 6.59173 -38.2797
lclavicle -1.96797e-014 -3.10104e-014
lhumerus -22.3542 -8.67885 84.2937
lradius 43.6552
lwrist 26.3635
lhand -18.7442 12.4761
lfingers 7.12502
lthumb 7.55201 42.3213
rfemur -72.8914 0.76919 16.4849
rtibia 65.2566
rfoot -8.80193 -15.3536
rtoes -9.86076
lfemur -41.5394 4.13568 -27.1776
ltibia 72.9803
lfoot -30.7761 3.42269
ltoes -13.194
1043
root -38.5056 14.9503 -5.80765 388.463 87.4694 736.882
lowerback 31.0895 -1.28962 0.322418
upperback 7.49299 -0.96431 -1.27363
thorax -8.59467 -0.167996 -1.3113
lowerneck -5.09848 0.177053 1.93948
upperneck -6.67285 0.297043 -0.0110608
head -1.20391 0.165168 -0.322015
rclavicle 9.93923e-015 1.96797e-014
rhumerus -22.291 6.87338 -86.3434
rradius 52.0735
rwrist -6.00996
rhand -19.7068 -8.38965
rfingers 7.12502
rthumb 6.62289 -38.2661
lclavicle 9.93923e-015 1.96797e-014
lhumerus -22.4574 -8.70813 84.2685
lradius 43.5627
lwrist 26.3337
lhand -18.6872 12.4932
lfingers 7.12502
lthumb 7.60705 42.3364
rfemur -73.2864 0.542857 16.7057
rtibia 67.5091
rfoot -9.85115 -15.1219
rtoes -10.3393
lfemur -41.9944 4.17941 -27.2275
ltibia 73.1145
lfoot -30.8033 3.4018
ltoes -12.7334
